# xmcd
#
# Track frame offsets:
#	150
#	37552
#	73782
#	106514
#	139986
#	168118
#	199570
#	235664
#	265283
#	302843
#
# Disc length: 4537 seconds
#
# Revision: 0
# Processed by: cddbd v1.5.2PL0 Copyright (c) Steve Scherf et al.
# Submitted via: audiograbber 1.83.01
#
DISCID=7811b70a
DTITLE=va - Hadra Team - Hadra - Trance Festival - Disc Two
DYEAR=1900
DGENRE=psytrance
TTITLE0=Funky DRagon - Kymonic
TTITLE1=Barak Vs Holon - Subcero (Barak RMX)
TTITLE2=Tweakers - Alien is Lost
TTITLE3=Southwild - Boobie Trap
TTITLE4=Dirty Saffi - Artifishal
TTITLE5=Whiptongue - Unpolarized
TTITLE6=Lunarave - Dark Romance
TTITLE7=Sine Die - Cre Action
TTITLE8=D-Root - Mars Celtics
TTITLE9=Plasma Corp - Reflections
EXTD=
EXTT0=
EXTT1=
EXTT2=
EXTT3=
EXTT4=
EXTT5=
EXTT6=
EXTT7=
EXTT8=
EXTT9=
PLAYORDER=
